<?xml version="1.0" encoding="UTF-8" standalone="yes"?>
<svg xmlns="http://www.w3.org/2000/svg" viewBox="0 0 50 50" width="50" height="50" fill="#000000">
  <path d="M 24.417969 4.003906 C 15.472656 3.835938 7.050781 9.449219 4.078125 18.375 C 2.3125 23.699219 2.71875 29.390625 5.234375 34.40625 C 7.746094 39.421875 12.0625 43.15625 17.382813 44.925781 C 19.574219 45.652344 21.800781 46 23.988281 46 C 25.695313 46 27.375 45.785156 29 45.386719 L 29 43.316406 C 25.507813 44.277344 21.703125 44.253906 18.015625 43.03125 C 13.199219 41.429688 9.292969 38.046875 7.023438 33.511719 C 4.75 28.972656 4.378906 23.824219 5.976563 19.007813 C 8.625 11.046875 16.058594 6 24.019531 6 C 26.003906 6 28.019531 6.3125 30 6.972656 C 34.816406 8.574219 38.71875 11.953125 40.992188 16.488281 C 41.609375 17.722656 42.074219 19 42.410156 20.304688 L 36.386719 17.824219 C 35.871094 17.613281 35.289063 17.855469 35.078125 18.363281 C 34.867188 18.875 35.109375 19.460938 35.621094 19.671875 L 43.527344 22.925781 C 43.652344 22.976563 43.777344 23 43.90625 23 C 44.300781 23 44.671875 22.769531 44.832031 22.382813 L 47.925781 14.871094 C 48.136719 14.359375 47.890625 13.773438 47.378906 13.5625 C 46.871094 13.355469 46.285156 13.597656 46.074219 14.109375 L 44.09375 18.921875 C 43.75 17.789063 43.320313 16.675781 42.78125 15.59375 C 40.269531 10.582031 35.953125 6.84375 30.628906 5.074219 C 28.570313 4.390625 26.480469 4.042969 24.417969 4.003906 Z M 34.832031 31 C 32.726563 31 31 32.726563 31 34.832031 L 31 46.167969 C 31 48.269531 32.726563 50 34.832031 50 L 46.167969 50 C 48.269531 50 50 48.273438 50 46.167969 L 50 34.832031 C 50 32.726563 48.273438 31 46.167969 31 Z M 34.832031 33 L 46.167969 33 C 47.179688 33 48 33.820313 48 34.832031 L 48 46.167969 C 48 47.179688 47.179688 48 46.167969 48 L 34.832031 48 C 33.820313 48 33 47.179688 33 46.167969 L 33 34.832031 C 33 33.820313 33.820313 33 34.832031 33 Z M 45.199219 36 L 39.800781 42.300781 L 36.5 39.800781 L 35.300781 41.402344 L 40 45 L 46.699219 37.300781 Z"/>
</svg>
